<svg xmlns="http://www.w3.org/2000/svg" xmlns:xlink="http://www.w3.org/1999/xlink" style="display:none">
  <!-- React Icon -->
  <symbol id="react" viewBox="0 0 569 512">
    <g fill="none" fill-rule="evenodd">
      <g transform="translate(-227, -256)" fill="#58C4DC" fill-rule="nonzero">
        <g transform="translate(227, 256)">
          <path d="M285.5,201 C255.400481,201 231,225.400481 231,255.5 C231,285.599519 255.400481,310 285.5,310 C315.599519,310 340,285.599519 340,255.5 C340,225.400481 315.599519,201 285.5,201" id="Path"></path>
          <path d="M568.959856,255.99437 C568.959856,213.207656 529.337802,175.68144 466.251623,150.985214 C467.094645,145.423543 467.85738,139.922107 468.399323,134.521063 C474.621631,73.0415145 459.808523,28.6686204 426.709856,9.5541429 C389.677085,-11.8291748 337.36955,3.69129898 284.479928,46.0162134 C231.590306,3.69129898 179.282771,-11.8291748 142.25,9.5541429 C109.151333,28.6686204 94.3382249,73.0415145 100.560533,134.521063 C101.102476,139.922107 101.845139,145.443621 102.708233,151.02537 C97.4493791,153.033193 92.2908847,155.161486 87.3331099,157.39017 C31.0111824,182.708821 0,217.765415 0,255.99437 C0,298.781084 39.6220545,336.307301 102.708233,361.003527 C101.845139,366.565197 101.102476,372.066633 100.560533,377.467678 C94.3382249,438.947226 109.151333,483.32012 142.25,502.434597 C153.629683,508.887578 166.52439,512.186771 179.603923,511.991836 C210.956328,511.991836 247.567589,495.487529 284.479928,465.972527 C321.372196,495.487529 358.003528,511.991836 389.396077,511.991836 C402.475265,512.183856 415.36922,508.884856 426.75,502.434597 C459.848667,483.32012 474.661775,438.947226 468.439467,377.467678 C467.897524,372.066633 467.134789,366.565197 466.291767,361.003527 C529.377946,336.347457 569,298.761006 569,255.99437 M389.155214,27.1025182 C397.565154,26.899606 405.877839,28.9368502 413.241569,33.0055186 C436.223966,46.2772304 446.540955,82.2775015 441.522965,131.770345 C441.181741,135.143488 440.780302,138.556788 440.298575,141.990165 C414.066922,134.08804 387.205771,128.452154 360.010724,125.144528 C343.525021,103.224055 325.192524,82.7564475 305.214266,63.9661533 C336.586743,39.7116483 366.032313,27.1025182 389.135142,27.1025182 M378.356498,310.205598 C368.204912,327.830733 357.150626,344.919965 345.237759,361.405091 C325.045049,363.479997 304.758818,364.51205 284.459856,364.497299 C264.167589,364.51136 243.888075,363.479308 223.702025,361.405091 C211.820914,344.919381 200.80007,327.83006 190.683646,310.205598 C180.532593,292.629285 171.306974,274.534187 163.044553,255.99437 C171.306974,237.454554 180.532593,219.359455 190.683646,201.783142 C200.784121,184.229367 211.770999,167.201087 223.601665,150.764353 C243.824636,148.63809 264.145559,147.579168 284.479928,147.591877 C304.772146,147.579725 325.051559,148.611772 345.237759,150.68404 C357.109048,167.14607 368.136094,184.201112 378.27621,201.783142 C388.419418,219.363718 397.644825,237.458403 405.915303,255.99437 C397.644825,274.530337 388.419418,292.625022 378.27621,310.205598 M419.724813,290.127366 C426.09516,307.503536 431.324985,325.277083 435.380944,343.334682 C417.779633,348.823635 399.836793,353.149774 381.668372,356.285142 C388.573127,345.871232 395.263781,335.035679 401.740334,323.778483 C408.143291,312.655143 414.144807,301.431411 419.805101,290.207679 M246.363271,390.377981 C258.848032,391.140954 271.593728,391.582675 284.5,391.582675 C297.406272,391.582675 310.232256,391.140954 322.737089,390.377981 C310.880643,404.583418 298.10766,417.997563 284.5,430.534446 C270.921643,417.999548 258.18192,404.585125 246.363271,390.377981 Z M187.311556,356.244986 C169.137286,353.123646 151.187726,348.810918 133.578912,343.334682 C137.618549,325.305649 142.828222,307.559058 149.174827,290.207679 C154.754833,301.431411 160.736278,312.655143 167.239594,323.778483 C173.74291,334.901824 180.467017,345.864539 187.311556,356.285142 M149.174827,221.760984 C142.850954,204.473938 137.654787,186.794745 133.619056,168.834762 C151.18418,163.352378 169.085653,159.013101 187.211197,155.844146 C180.346585,166.224592 173.622478,176.986525 167.139234,188.210257 C160.65599,199.433989 154.734761,210.517173 149.074467,221.760984 M322.616657,121.590681 C310.131896,120.827708 297.3862,120.385987 284.379568,120.385987 C271.479987,120.385987 258.767744,120.787552 246.242839,121.590681 C258.061488,107.383537 270.801211,93.9691137 284.379568,81.4342157 C297.99241,93.9658277 310.765727,107.380324 322.616657,121.590681 Z M401.70019,188.210257 C395.196875,176.939676 388.472767,166.09743 381.527868,155.68352 C399.744224,158.819049 417.734224,163.151949 435.380944,168.654058 C431.331963,186.680673 426.122466,204.426664 419.785029,221.781062 C414.205023,210.55733 408.203506,199.333598 401.720262,188.230335 M127.517179,131.790423 C122.438973,82.3176579 132.816178,46.2973086 155.778503,33.0255968 C163.144699,28.9632474 171.455651,26.9264282 179.864858,27.1225964 C202.967687,27.1225964 232.413257,39.7317265 263.785734,63.9862316 C243.794133,82.7898734 225.448298,103.270812 208.949132,125.204763 C181.761691,128.528025 154.90355,134.14313 128.661281,141.990165 C128.199626,138.556788 127.778115,135.163566 127.456963,131.790423 M98.4529773,182.106474 C101.54406,180.767925 104.695358,179.429376 107.906872,178.090828 C114.220532,204.735668 122.781793,230.7969 133.498624,255.99437 C122.761529,281.241316 114.193296,307.357063 107.8868,334.058539 C56.7434387,313.076786 27.0971497,284.003505 27.0971497,255.99437 C27.0971497,229.450947 53.1907013,202.526037 98.4529773,182.106474 Z M155.778503,478.963143 C132.816178,465.691432 122.438973,429.671082 127.517179,380.198317 C127.838331,376.825174 128.259842,373.431953 128.721497,369.978497 C154.953686,377.878517 181.814655,383.514365 209.009348,386.824134 C225.500295,408.752719 243.832321,429.233234 263.805806,448.042665 C220.069,481.834331 180.105722,492.97775 155.838719,478.963143 M441.502893,380.198317 C446.520883,429.691161 436.203894,465.691432 413.221497,478.963143 C388.974566,493.017906 348.991216,481.834331 305.274481,448.042665 C325.241364,429.232737 343.566681,408.752215 360.050868,386.824134 C387.245915,383.516508 414.107066,377.880622 440.338719,369.978497 C440.820446,373.431953 441.221885,376.825174 441.563109,380.198317 M461.193488,334.018382 C454.869166,307.332523 446.294494,281.231049 435.561592,255.99437 C446.289797,230.744081 454.857778,204.629101 461.173416,177.930202 C512.216417,198.911955 541.942994,227.985236 541.942994,255.99437 C541.942994,284.003505 512.296705,313.076786 461.153344,334.058539" id="Shape"></path>
        </g>
      </g>
    </g>
  </symbol>
  <!-- Node Icon -->
  <symbol id="node" viewBox="0 0 256 292">
    <defs>
      <linearGradient id="a" x1="68.188%" x2="27.823%" y1="17.487%" y2="89.755%"><stop offset="0%" stop-color="#41873F"/><stop offset="32.88%" stop-color="#418B3D"/><stop offset="63.52%" stop-color="#419637"/><stop offset="93.19%" stop-color="#3FA92D"/><stop offset="100%" stop-color="#3FAE2A"/></linearGradient>
      <linearGradient id="c" x1="43.277%" x2="159.245%" y1="55.169%" y2="-18.306%"><stop offset="13.76%" stop-color="#41873F"/><stop offset="40.32%" stop-color="#54A044"/><stop offset="71.36%" stop-color="#66B848"/><stop offset="90.81%" stop-color="#6CC04A"/></linearGradient>
      <linearGradient id="f" x1="-4.389%" x2="101.499%" y1="49.997%" y2="49.997%"><stop offset="9.192%" stop-color="#6CC04A"/><stop offset="28.64%" stop-color="#66B848"/><stop offset="59.68%" stop-color="#54A044"/><stop offset="86.24%" stop-color="#41873F"/></linearGradient>
      <path id="b" d="M134.923 1.832c-4.344-2.443-9.502-2.443-13.846 0L6.787 67.801C2.443 70.244 0 74.859 0 79.745v132.208c0 4.887 2.715 9.502 6.787 11.945l114.29 65.968c4.344 2.444 9.502 2.444 13.846 0l114.29-65.968c4.344-2.443 6.787-7.058 6.787-11.945V79.745c0-4.886-2.715-9.501-6.787-11.944L134.923 1.832Z"/>
      <path id="e" d="M134.923 1.832c-4.344-2.443-9.502-2.443-13.846 0L6.787 67.801C2.443 70.244 0 74.859 0 79.745v132.208c0 4.887 2.715 9.502 6.787 11.945l114.29 65.968c4.344 2.444 9.502 2.444 13.846 0l114.29-65.968c4.344-2.443 6.787-7.058 6.787-11.945V79.745c0-4.886-2.715-9.501-6.787-11.944L134.923 1.832Z"/>
    </defs>
    <path fill="url(#a)" d="M134.923 1.832c-4.344-2.443-9.502-2.443-13.846 0L6.787 67.801C2.443 70.244 0 74.859 0 79.745v132.208c0 4.887 2.715 9.502 6.787 11.945l114.29 65.968c4.344 2.444 9.502 2.444 13.846 0l114.29-65.968c4.344-2.443 6.787-7.058 6.787-11.945V79.745c0-4.886-2.715-9.501-6.787-11.944L134.923 1.832Z"/>
    <mask id="d" fill="#fff"><use xlink:href="#b"/></mask>
    <path fill="url(#c)" d="M249.485 67.8 134.65 1.833c-1.086-.542-2.443-1.085-3.529-1.357L2.443 220.912c1.086 1.357 2.444 2.443 3.8 3.258l114.834 65.968c3.258 1.9 7.059 2.443 10.588 1.357L252.47 70.515c-.815-1.086-1.9-1.9-2.986-2.714Z" mask="url(#d)"/>
    <mask id="g" fill="#fff"><use xlink:href="#e"/></mask>
    <path fill="url(#f)" d="M249.756 223.898c3.258-1.9 5.701-5.158 6.787-8.687L130.579.204c-3.258-.543-6.787-.272-9.773 1.628L6.786 67.53l122.979 224.238c1.628-.272 3.529-.815 5.158-1.63l114.833-66.239Z" mask="url(#g)"/>
  </symbol>
  <!-- TypeScript Icon -->
  <symbol id="typescript" viewBox="0 0 256 256">
    <rect width="256" height="256" rx="20" fill="#3178C6"/>
    <path d="M150.518 200.475v27.62c4.492 2.302 9.805 4.028 15.938 5.179 6.133 1.151 12.597 1.726 19.393 1.726 6.622 0 12.914-.633 18.874-1.899 5.96-1.266 11.187-3.352 15.678-6.257 4.492-2.906 8.048-6.704 10.669-11.394 2.62-4.689 3.93-10.486 3.93-17.391 0-5.006-.749-9.394-2.246-13.163a30.748 30.748 0 0 0-6.479-10.055c-2.821-2.935-6.205-5.567-10.149-7.898-3.945-2.33-8.394-4.531-13.347-6.602-3.628-1.497-6.881-2.949-9.761-4.359-2.879-1.41-5.327-2.848-7.342-4.316-2.016-1.467-3.571-3.021-4.665-4.661-1.094-1.64-1.641-3.495-1.641-5.567 0-1.899.489-3.61 1.468-5.135s2.362-2.834 4.147-3.927c1.785-1.094 3.973-1.942 6.565-2.547 2.591-.604 5.471-.906 8.638-.906 2.304 0 4.737.173 7.299.518 2.563.345 5.14.877 7.732 1.597a53.669 53.669 0 0 1 7.558 2.719 41.7 41.7 0 0 1 6.781 3.797v-25.807c-4.204-1.611-8.797-2.805-13.778-3.582-4.981-.777-10.697-1.165-17.147-1.165-6.565 0-12.784.705-18.658 2.115-5.874 1.409-11.043 3.61-15.506 6.602-4.463 2.993-7.99 6.805-10.582 11.437-2.591 4.632-3.887 10.17-3.887 16.615 0 8.228 2.375 15.248 7.127 21.06 4.751 5.811 11.963 10.731 21.638 14.759a291.458 291.458 0 0 1 10.625 4.575c3.283 1.496 6.119 3.049 8.509 4.66 2.39 1.611 4.276 3.366 5.658 5.265 1.382 1.899 2.073 4.057 2.073 6.474a9.901 9.901 0 0 1-1.296 4.963c-.863 1.524-2.174 2.848-3.93 3.97-1.756 1.122-3.945 1.999-6.565 2.632-2.62.633-5.687.95-9.2.95-5.989 0-11.92-1.05-17.794-3.151-5.875-2.1-11.317-5.25-16.327-9.451Zm-46.036-68.733H140V109H41v22.742h35.345V233h28.137V131.742Z" fill="#FFF"/>
  </symbol>
  <symbol id="html" viewBox="0 0 452 520">
    <path fill="#e34f26" d="M41 460L0 0h451l-41 460-185 52" />
    <path fill="#ef652a" d="M226 472l149-41 35-394H226" />
    <path fill="#ecedee" d="M226 208h-75l-5-58h80V94H84l15 171h127zm0 147l-64-17-4-45h-56l7 89 117 32z"/>
    <path fill="#fff" d="M226 265h69l-7 73-62 17v59l115-32 16-174H226zm0-171v56h136l5-56z"/>
  </symbol>
  <!-- C# Icon -->
  <symbol id="csharp" viewBox="0 0 256 256">
    <path fill="#68217A" d="M128 0l111 64v128l-111 64L17 192V64z"/>
    <text x="50%" y="55%" dominant-baseline="middle" text-anchor="middle" fill="#fff" font-size="90" font-family="Arial, sans-serif">C#</text>
  </symbol>

  <!-- C++ Icon -->
  <symbol id="cplusplus" viewBox="0 0 256 256">
    <path fill="#00599C" d="M128 0l111 64v128l-111 64L17 192V64z"/>
    <text x="50%" y="50%" dominant-baseline="middle" text-anchor="middle" fill="#fff" font-size="70" font-family="Arial, sans-serif">C++</text>
  </symbol>
  
  <!-- Unity Icon -->
  <symbol id="unity" viewBox="0 0 512 512">
    <path fill="#000" d="M256 32l74 128-74 128-74-128 74-128zm0 192l74 128-74 128-74-128 74-128zm148-64l74 128-74 128-74-128 74-128zm-296 0l74 128-74 128-74-128 74-128z"/>
  </symbol>

  <!-- CSS Icon -->
  <symbol id="css" viewBox="0 0 1000 1000">
    <path fill="#639" d="M0 0h840a160 160 0 0 1 160 160v680a160 160 0 0 1-160 160H160A160 160 0 0 1 0 840V0Z"/>
    <path fill="#fff" d="M816.54 919.9c-32.39 0-57.16-9.42-74.5-28.35-17.15-19.03-26.08-46.18-26.88-81.64h69.8c.4 31.36 11.42 47.08 33.08 47.08 11.04 0 18.86-3.5 23.37-10.42 4.41-6.9 6.72-17.93 6.72-33.05 0-12.02-3.01-22.04-8.83-29.95a73.2 73.2 0 0 0-29.48-21.14L783.95 750c-23.06-11.02-39.81-24.04-50.14-39.27-10.03-15.13-15.04-36.36-15.04-63.5 0-30.36 8.83-55 26.37-73.94 18.05-18.93 42.62-28.34 74-28.34 30.3 0 53.76 9.31 70.3 27.84 16.85 18.64 25.67 45.28 26.38 80.14h-67.19c.4-11.4-1.9-22.72-6.72-33.06-3.8-7.6-11.23-11.41-22.26-11.41-19.65 0-29.48 11.71-29.48 35.05 0 11.83 2.4 21.04 7.22 28.05A65.18 65.18 0 0 0 822.76 689l24.77 10.92c25.57 11.72 44.02 26.05 55.35 43.38 11.43 17.23 17.05 40.27 17.05 69.12 0 34.56-9.03 61.1-27.38 79.63-18.25 18.53-43.62 27.85-76 27.85Zm-225.42 0c-32.4 0-57.16-9.42-74.51-28.35-17.15-19.03-26.07-46.18-26.87-81.64h69.79c.4 31.36 11.43 47.08 33.1 47.08 11.02 0 18.84-3.5 23.25-10.42 4.52-6.9 6.72-17.93 6.72-33.05 0-12.02-2.9-22.04-8.72-29.95a73.2 73.2 0 0 0-29.48-21.14L558.53 750c-23.07-11.02-39.81-24.04-50.14-39.27-10.03-15.13-15.04-36.36-15.04-63.5 0-30.36 8.82-55 26.37-73.94 18.05-18.93 42.62-28.34 74-28.34 30.29 0 53.75 9.31 70.2 27.84 17.05 18.64 25.77 45.28 26.47 80.14h-67.18c.4-11.4-1.9-22.72-6.72-33.06-3.81-7.6-11.23-11.41-22.26-11.41-19.66 0-29.49 11.71-29.49 35.05 0 11.83 2.41 21.04 7.22 28.05A65.18 65.18 0 0 0 597.33 689l24.77 10.92c25.57 11.72 44.02 26.05 55.36 43.38 11.33 17.23 17.04 40.27 17.04 69.12 0 34.56-9.12 61.1-27.37 79.63-18.25 18.53-43.62 27.85-76.01 27.85Zm-234.75 0c-31.7 0-56.86-8.62-75.51-25.85-18.65-17.12-27.88-42.87-27.88-76.93V648.83c0-33.85 9.83-59.5 29.48-77.13 19.96-17.43 46.13-26.24 78.52-26.24 31.39 0 56.15 9.01 74.5 26.84 18.56 17.93 27.88 44.58 27.88 80.14v13.32h-73.9v-12.92c0-13.72-3.01-23.84-8.83-30.45a26.46 26.46 0 0 0-21.66-10.32c-12.03 0-20.55 4.1-25.37 12.42a79.04 79.04 0 0 0-6.72 36.66v146.26c0 30.55 10.74 46.08 32.1 46.38 10.02 0 17.54-3.61 22.76-10.82a51.74 51.74 0 0 0 7.72-30.46V801.6h73.9v11.42c0 23.74-4.61 43.57-13.94 59.4a88.8 88.8 0 0 1-38.2 35.66 121.46 121.46 0 0 1-54.85 11.82Z"/>
  </symbol>
  <!-- Instagram Icon -->
  <symbol id="instagram" viewBox="0 0 256 256">
    <path fill="#fff" d="M128 23.064c34.177 0 38.225.13 51.722.745 12.48.57 19.258 2.655 23.769 4.408 5.974 2.322 10.238 5.096 14.717 9.575 4.48 4.479 7.253 8.743 9.575 14.717 1.753 4.511 3.838 11.289 4.408 23.768.615 13.498.745 17.546.745 51.723 0 34.178-.13 38.226-.745 51.723-.57 12.48-2.655 19.257-4.408 23.768-2.322 5.974-5.096 10.239-9.575 14.718-4.479 4.479-8.743 7.253-14.717 9.574-4.511 1.753-11.289 3.839-23.769 4.408-13.495.616-17.543.746-51.722.746-34.18 0-38.228-.13-51.723-.746-12.48-.57-19.257-2.655-23.768-4.408-5.974-2.321-10.239-5.095-14.718-9.574-4.479-4.48-7.253-8.744-9.574-14.718-1.753-4.51-3.839-11.288-4.408-23.768-.616-13.497-.746-17.545-.746-51.723 0-34.177.13-38.225.746-51.722.57-12.48 2.655-19.258 4.408-23.769 2.321-5.974 5.095-10.238 9.574-14.717 4.48-4.48 8.744-7.253 14.718-9.575 4.51-1.753 11.289-3.838 23.768-4.408 13.497-.615 17.545-.745 51.723-.745M128 0C93.237 0 88.878.147 75.226.77c-13.625.622-22.93 2.786-31.071 5.95-8.418 3.271-15.556 7.648-22.672 14.764C14.367 28.6 9.991 35.738 6.72 44.155 3.555 52.297 1.392 61.602.77 75.226.147 88.878 0 93.237 0 128c0 34.763.147 39.122.77 52.774.622 13.625 2.785 22.93 5.95 31.071 3.27 8.417 7.647 15.556 14.763 22.672 7.116 7.116 14.254 11.492 22.672 14.763 8.142 3.165 17.446 5.328 31.07 5.95 13.653.623 18.012.77 52.775.77s39.122-.147 52.774-.77c13.624-.622 22.929-2.785 31.07-5.95 8.418-3.27 15.556-7.647 22.672-14.763 7.116-7.116 11.493-14.254 14.764-22.672 3.164-8.142 5.328-17.446 5.95-31.07.623-13.653.77-18.012.77-52.775s-.147-39.122-.77-52.774c-.622-13.624-2.786-22.929-5.95-31.07-3.271-8.418-7.648-15.556-14.764-22.672C227.4 14.368 220.262 9.99 211.845 6.72c-8.142-3.164-17.447-5.328-31.071-5.95C167.122.147 162.763 0 128 0Zm0 62.27C91.698 62.27 62.27 91.7 62.27 128c0 36.302 29.428 65.73 65.73 65.73 36.301 0 65.73-29.428 65.73-65.73 0-36.301-29.429-65.73-65.73-65.73Zm0 108.397c-23.564 0-42.667-19.103-42.667-42.667S104.436 85.333 128 85.333s42.667 19.103 42.667 42.667-19.103 42.667-42.667 42.667Zm83.686-110.994c0 8.484-6.876 15.36-15.36 15.36-8.483 0-15.36-6.876-15.36-15.36 0-8.483 6.877-15.36 15.36-15.36 8.484 0 15.36 6.877 15.36 15.36Z"/>
  </symbol>
  <!-- X (Twitter) Icon -->
  <symbol id="x" viewBox="0 0 1200 1227">
    <path fill="#fff" d="M714.163 519.284 1160.89 0h-105.86L667.137 450.887 357.328 0H0l468.492 681.821L0 1226.37h105.866l409.625-476.152 327.181 476.152H1200L714.137 519.284h.026ZM569.165 687.828l-47.468-67.894-377.686-540.24h162.604l304.797 435.991 47.468 67.894 396.2 566.721H892.476L569.165 687.854v-.026Z"/>
  </symbol>
  <!-- YouTube Icon -->
  <symbol id="youtube" viewBox="0 0 256 180">
    <path d="M250.346 28.075A32.18 32.18 0 0 0 227.69 5.418C207.824 0 127.87 0 127.87 0S47.912.164 28.046 5.582A32.18 32.18 0 0 0 5.39 28.24c-6.009 35.298-8.34 89.084.165 122.97a32.18 32.18 0 0 0 22.656 22.657c19.866 5.418 99.822 5.418 99.822 5.418s79.955 0 99.82-5.418a32.18 32.18 0 0 0 22.657-22.657c6.338-35.348 8.291-89.1-.164-123.134Z" fill="red"/>
    <path fill="#FFF" d="m102.421 128.06 66.328-38.418-66.328-38.418z"/>
  </symbol>
  <!-- LinkedIn Icon -->
  <symbol id="linkedin" viewBox="0 0 256 256">
    <path d="M218.123 218.127h-37.931v-59.403c0-14.165-.253-32.4-19.728-32.4-19.756 0-22.779 15.434-22.779 31.369v60.43h-37.93V95.967h36.413v16.694h.51a39.907 39.907 0 0 1 35.928-19.733c38.445 0 45.533 25.288 45.533 58.186l-.016 67.013ZM56.955 79.27c-12.157.002-22.014-9.852-22.016-22.009-.002-12.157 9.851-22.014 22.008-22.016 12.157-.003 22.014 9.851 22.016 22.008A22.013 22.013 0 0 1 56.955 79.27m18.966 138.858H37.95V95.967h37.97v122.16ZM237.033.018H18.89C8.58-.098.125 8.161-.001 18.471v219.053c.122 10.315 8.576 18.582 18.89 18.474h218.144c10.336.128 18.823-8.139 18.966-18.474V18.454c-.147-10.33-8.635-18.588-18.966-18.453" fill="#0A66C2"/>
  </symbol>
  <!-- GitHub Icon -->
  <symbol id="github" viewBox="0 0 1024 1024">
    <path fill-rule="evenodd" clip-rule="evenodd" d="M8 0C3.58 0 0 3.58 0 8C0 11.54 2.29 14.53 5.47 15.59C5.87 15.66 6.02 15.42 6.02 15.21C6.02 15.02 6.01 14.39 6.01 13.72C4 14.09 3.48 13.23 3.32 12.78C3.23 12.55 2.84 11.84 2.5 11.65C2.22 11.5 1.82 11.13 2.49 11.12C3.12 11.11 3.57 11.7 3.72 11.94C4.44 13.15 5.59 12.81 6.05 12.6C6.12 12.08 6.33 11.73 6.56 11.53C4.78 11.33 2.92 10.64 2.92 7.58C2.92 6.71 3.23 5.99 3.74 5.43C3.66 5.23 3.38 4.41 3.82 3.31C3.82 3.31 4.49 3.1 6.02 4.13C6.66 3.95 7.34 3.86 8.02 3.86C8.7 3.86 9.38 3.95 10.02 4.13C11.55 3.09 12.22 3.31 12.22 3.31C12.66 4.41 12.38 5.23 12.3 5.43C12.81 5.99 13.12 6.7 13.12 7.58C13.12 10.65 11.25 11.33 9.47 11.53C9.76 11.78 10.01 12.26 10.01 13.01C10.01 14.08 10 14.94 10 15.21C10 15.42 10.15 15.67 10.55 15.59C13.71 14.53 16 11.53 16 8C16 3.58 12.42 0 8 0Z" transform="scale(64)" fill="#fff"/>
  </symbol>
  <!-- Strava Icon -->
  <symbol id="strava" width="512" height="512" style="enable-background:new 0 0 512 512"><path d="M226.172 26.001 90.149 288.345h80.141l55.882-104.309 55.433 104.309h79.511z" style="fill:#f50"/><path d="m361.116 288.345-39.441 79.241-40.07-79.241h-60.734l100.804 197.654 100.176-197.654z" style="fill:#ffaf8a"/></symbol>
  <!-- Twitch Icon -->
  <symbol id="twitch" viewBox="0 0 2400 2800">
    <path fill="#fff" d="m2200 1300-400 400h-400l-350 350v-350H600V200h1600z"/>
    <g fill="#9146ff">
      <path d="M500 0 0 500v1800h600v500l500-500h400l900-900V0H500zm1700 1300-400 400h-400l-350 350v-350H600V200h1600v1100z"/>
      <path d="M1700 550h200v600h-200zm-550 0h200v600h-200z"/>
    </g>
  </symbol>
  <!-- Verified Icon -->
  <symbol id="verified" viewBox="0 0 20 20">
    <path fill-rule="evenodd" d="M10 18a8 8 0 100-16 8 8 0 000 16zm3.707-8.707a1 1 0 00-1.414-1.414L9 11.172l-1.293-1.293a1 1 0 00-1.414 1.414l2 2a1 1 0 001.414 0l4-4z" clip-rule="evenodd" />
  </symbol>

  <!-- Extra Icons -->
  <!-- Code Icon -->
  <symbol id="code" viewBox="0 0 16 16">
    <path d="M8.01005 0.858582L6.01005 14.8586L7.98995 15.1414L9.98995 1.14142L8.01005 0.858582Z"/>
    <path d="M12.5 11.5L11.0858 10.0858L13.1716 8L11.0858 5.91422L12.5 4.5L16 8L12.5 11.5Z"/>
    <path d="M2.82843 8L4.91421 10.0858L3.5 11.5L0 8L3.5 4.5L4.91421 5.91422L2.82843 8Z"/>  
  </symbol>
  <!-- Puzzle Icon -->
  <symbol id="puzzle" viewBox="0 0 32 32">
    <path d="M16 32.005c-0.634 0-1.231-0.246-1.68-0.693l-13.641-13.64c-0.923-0.927-0.923-2.436-0.002-3.361l4.997-4.996c0.308-0.309 0.782-0.382 1.17-0.179 0.386 0.202 0.598 0.632 0.522 1.062-0.051 0.286-0.074 0.515-0.074 0.723 0 2.188 1.78 4.005 3.969 4.005 2.191 0 3.79-1.817 3.79-4.005 0-2.191-1.599-3.971-3.79-3.971-0.205 0-0.433 0.024-0.719 0.074-0.434 0.080-0.86-0.135-1.062-0.521-0.202-0.388-0.129-0.862 0.179-1.17l4.659-4.66c0.902-0.898 2.463-0.896 3.361-0.002l3.411 3.413c0.712-2.213 2.79-3.82 5.235-3.82 3.032 0 5.499 2.468 5.499 5.501 0 2.446-1.605 4.523-3.82 5.234l3.314 3.312c0.925 0.928 0.925 2.436 0.001 3.363l-13.639 13.64c-0.451 0.45-1.047 0.696-1.681 0.696zM5.465 12.351l-3.372 3.371c-0.145 0.146-0.145 0.389 0.002 0.537l13.636 13.637c0.191 0.189 0.342 0.192 0.537-0.002l13.636-13.637c0.146-0.148 0.146-0.387-0.001-0.536l-4.809-4.806c-0.301-0.301-0.379-0.76-0.194-1.143s0.589-0.61 1.016-0.557l0.152 0.020c0.084 0.011 0.168 0.025 0.256 0.025 1.93 0 3.499-1.569 3.499-3.497 0-1.931-1.57-3.501-3.499-3.501s-3.498 1.571-3.498 3.501c0 0.080 0.012 0.158 0.023 0.236l0.021 0.178c0.045 0.422-0.18 0.826-0.563 1.009-0.38 0.181-0.838 0.104-1.137-0.196l-4.904-4.907c-0.192-0.19-0.342-0.192-0.537 0.002l-3.035 3.035c2.603 0.644 4.356 2.999 4.356 5.798 0 3.291-2.498 6.004-5.79 6.004-2.798-0-5.152-1.972-5.795-4.572z" />
  </symbol>
  <!-- Communication Icon -->
  <symbol id="communication" viewBox="0 0 512 512">
    <g>  
      <path d="M502.82,60.707c-8.747-18.246-23.112-33.379-40.878-43.99C444.158,6.116,422.918,0.018,400.114,0
      c-30.364,0.018-58.026,10.846-78.361,28.784c-10.163,8.974-18.508,19.756-24.32,31.923c-5.825,12.148-9.096,25.69-9.096,39.875
      c-0.009,18.074,5.333,35.08,14.478,49.563c7.811,12.384,18.377,22.977,30.838,31.263l-18.766,46.876l13.551-1.673
      c46.817-5.854,91.631-23.376,112.916-32.575c20.222-7.218,37.676-19.558,50.241-35.586c12.647-16.138,20.332-36.194,20.318-57.867
      C511.926,86.397,508.638,72.856,502.82,60.707z M479.844,146.969c-10.521,13.452-25.695,24.325-43.66,30.638l-0.245,0.072
      l-0.244,0.109c-18.418,7.996-55.674,22.515-95.277,29.408l13.424-33.489l-6.59-3.772c-13.297-7.599-24.184-17.947-31.679-29.824
      c-7.504-11.914-11.62-25.284-11.633-39.531c0-11.19,2.546-21.819,7.25-31.661c7.042-14.736,19.051-27.626,34.464-36.826
      c15.419-9.199,34.19-14.663,54.458-14.654c27.065-0.009,51.394,9.715,68.703,25.012c8.648,7.644,15.541,16.645,20.236,26.468
      c4.699,9.842,7.246,20.471,7.255,31.661C496.298,117.624,490.383,133.491,479.844,146.969z"/>
      <path d="M356.032,89.483c-6.704,0-12.135,6.078-12.135,13.55c0,7.49,5.432,13.56,12.135,13.56
        c6.703,0,12.144-6.07,12.144-13.56C368.176,95.561,362.735,89.483,356.032,89.483z"/>
      <path d="M402.858,89.483c-6.707,0-12.148,6.078-12.148,13.55c0,7.49,5.441,13.56,12.148,13.56
        c6.704,0,12.14-6.07,12.14-13.56C414.998,95.561,409.562,89.483,402.858,89.483z"/>
      <path d="M449.672,89.483c-6.704,0-12.14,6.078-12.14,13.55c0,7.49,5.436,13.56,12.14,13.56
        c6.712,0,12.149-6.07,12.149-13.56C461.82,95.561,456.384,89.483,449.672,89.483z"/>
      <path d="M220.945,347.057c-12.682,4.216-26.202,6.585-40.282,6.585s-27.599-2.369-40.282-6.585
        C48.284,362.172,0.088,429.854,0.088,512h180.575h180.575C361.238,429.854,313.046,362.172,220.945,347.057z"/>
      <path d="M180.663,324.36c54.588,0,98.836-44.252,98.836-98.836v-28.043c0-54.582-44.248-98.836-98.836-98.836
        s-98.836,44.253-98.836,98.836v28.043C81.827,280.108,126.076,324.36,180.663,324.36z"/>
    </g>      
  </symbol>
  <!-- Gears Icon -->
  <symbol id="gears" viewBox="0 0 392.663 392.663">
    <g>
      <g>
        <path d="M239.515,249.826l-22.044-14.481c-0.905-2.392-1.939-4.849-3.038-7.24l5.301-25.859c0.776-3.62-0.388-7.37-2.909-9.891
          L200.469,176c-2.651-2.651-6.335-3.685-9.891-2.909l-25.859,5.301c-2.392-1.099-4.848-2.133-7.24-3.038l-14.545-22.044
          c-2.004-3.103-5.43-4.913-9.115-4.913h-23.079c-3.62,0-7.111,1.875-9.115,4.913l-14.545,22.044
          c-2.392,0.905-4.849,1.939-7.24,3.038l-25.859-5.301c-3.556-0.711-7.37,0.388-9.891,2.909l-16.356,16.356
          c-2.651,2.651-3.685,6.335-2.909,9.891l5.301,25.859c-1.164,2.392-2.133,4.848-3.038,7.24L4.978,249.826
          C1.875,251.83,0,255.257,0,258.941v23.079c0,3.62,1.875,7.111,4.978,9.115l22.044,14.481c0.905,2.392,1.939,4.849,3.038,7.24
          l-5.301,25.859c-0.776,3.62,0.388,7.37,2.909,9.891l16.356,16.356c2.651,2.651,6.335,3.685,9.891,2.909l25.859-5.301
          c2.392,1.099,4.848,2.133,7.24,3.038l14.545,22.044c2.004,3.103,5.43,4.978,9.115,4.978h23.079c3.62,0,7.111-1.875,9.115-4.978
          l14.545-22.044c2.392-0.905,4.849-1.939,7.24-3.038l25.859,5.301c3.556,0.711,7.37-0.388,9.891-2.909l16.356-16.356
          c2.651-2.651,3.685-6.335,2.909-9.891l-5.301-25.859c1.164-2.392,2.133-4.848,3.038-7.24l22.044-14.545
          c3.103-2.004,4.913-5.43,4.913-9.115v-23.079C244.493,255.257,242.618,251.83,239.515,249.826z M222.772,276.202h-0.065
          l-20.17,13.317c-2.069,1.422-3.62,3.426-4.396,5.689c-1.228,3.814-2.844,7.564-4.784,11.378c-1.099,2.263-1.487,4.719-0.905,7.111
          l4.913,23.725l-8.016,8.016l-23.725-4.913c-2.392-0.453-4.913-0.129-7.176,0.905c-3.814,1.939-7.628,3.556-11.378,4.784
          c-2.327,0.776-4.396,2.327-5.689,4.396l-13.317,20.17h-11.378l-13.317-20.17c-1.422-2.069-3.426-3.62-5.689-4.396
          c-3.814-1.228-7.628-2.844-11.378-4.784c-2.263-1.099-4.719-1.487-7.176-0.905l-23.725,4.913l-8.081-8.081l4.978-23.725
          c0.453-2.392,0.129-4.978-0.905-7.176c-1.939-3.814-3.556-7.628-4.719-11.378c-0.776-2.327-2.327-4.396-4.396-5.689l-20.17-13.317
          v-11.378l20.17-13.317c2.069-1.422,3.62-3.426,4.396-5.689c1.228-3.814,2.844-7.564,4.784-11.378
          c1.099-2.263,1.487-4.719,0.905-7.111l-4.913-23.661l8.016-8.016l23.725,4.913c2.392,0.453,4.978,0.129,7.176-0.905
          c3.814-1.939,7.564-3.556,11.378-4.784c2.327-0.776,4.396-2.327,5.689-4.396l13.317-20.17h11.378l13.317,20.17
          c1.422,2.069,3.426,3.62,5.689,4.396c3.814,1.228,7.628,2.844,11.378,4.784c2.263,1.099,4.719,1.487,7.176,0.905l23.725-4.913
          l8.016,8.016l-4.913,23.725c-0.453,2.392-0.129,4.913,0.905,7.111c1.939,3.814,3.556,7.628,4.719,11.378
          c0.776,2.392,2.327,4.396,4.396,5.689l20.234,13.317V276.202z"/>
      </g>
    </g>
    <g>
      <g>
        <path d="M122.311,221.705c-26.893,0-48.743,21.85-48.743,48.743c0,26.893,21.85,48.743,48.743,48.743s48.743-21.851,48.743-48.743
          S149.204,221.705,122.311,221.705z M122.311,297.406c-14.804,0-26.958-12.154-26.958-26.958c0-14.869,12.154-26.958,26.958-26.958
          s26.958,12.154,26.958,26.958C149.204,285.382,137.115,297.406,122.311,297.406z"/>
      </g>
    </g>
    <g>
      <g>
        <path d="M387.685,79.483L371.2,68.687c-0.517-1.487-1.164-2.909-1.875-4.331l4.008-19.329c0.776-3.62-0.388-7.37-2.909-9.891
          l-12.671-12.671c-2.651-2.651-6.335-3.685-9.891-2.909l-19.394,3.814c-1.487-0.646-2.909-1.228-4.331-1.875L313.341,5.01
          c-2.004-3.103-5.43-4.978-9.115-4.978H286.19c-3.62,0-7.111,1.875-9.115,4.978l-10.796,16.485
          c-1.487,0.517-2.909,1.164-4.331,1.875l-19.329-4.008c-3.556-0.776-7.37,0.388-9.891,2.909l-12.671,12.671
          c-2.651,2.651-3.685,6.335-2.909,9.891l4.008,19.329c-0.646,1.487-1.228,2.909-1.875,4.331l-16.485,10.796
          c-3.103,2.004-4.913,5.43-4.913,9.115v18.036c0,3.62,1.875,7.111,4.913,9.115l16.485,10.796c0.517,1.487,1.164,2.909,1.875,4.331
          l-4.008,19.329c-0.776,3.62,0.388,7.37,2.909,9.891l12.671,12.735c2.651,2.651,6.335,3.685,9.891,2.909l19.329-4.008
          c1.487,0.646,2.909,1.228,4.331,1.875l10.796,16.485c2.004,3.103,5.43,4.913,9.115,4.913h18.036c3.62,0,7.111-1.875,9.115-4.913
          l10.796-16.485c1.487-0.517,2.909-1.164,4.396-1.875l19.329,4.008c3.62,0.711,7.37-0.388,9.891-2.909l12.671-12.735
          c2.65-2.651,3.685-6.335,2.909-9.891l-4.008-19.329c0.646-1.487,1.228-2.909,1.875-4.396l16.485-10.796
          c3.103-2.004,4.978-5.43,4.978-9.115V88.339C392.598,84.913,390.723,81.552,387.685,79.483z M371.006,100.622h-0.194v0.065
          l-14.61,9.568c-2.069,1.422-3.62,3.426-4.396,5.689c-0.905,2.78-2.069,5.624-3.556,8.469c-1.164,2.263-1.487,4.719-0.905,7.176
          l3.556,17.131l-4.396,4.396l-17.131-3.556c-2.392-0.453-4.913-0.129-7.176,0.905c-2.844,1.487-5.689,2.651-8.469,3.556
          c-2.392,0.776-4.396,2.327-5.689,4.396l-9.632,14.675h-6.206l-9.568-14.61c-1.422-2.069-3.426-3.62-5.689-4.396
          c-2.78-0.905-5.624-2.069-8.469-3.556c-2.263-1.164-4.719-1.487-7.176-0.905l-17.131,3.556l-4.396-4.396l3.556-17.131
          c0.453-2.392,0.129-4.913-0.905-7.111c-1.487-2.844-2.65-5.689-3.556-8.469c-0.776-2.327-2.327-4.396-4.396-5.689l-14.675-9.762
          v-6.206l14.61-9.568c2.069-1.422,3.62-3.426,4.396-5.689c0.905-2.78,2.069-5.624,3.556-8.469c1.164-2.263,1.487-4.719,0.905-7.176
          l-3.556-17.131l4.396-4.396l17.131,3.556c2.392,0.453,4.913,0.129,7.111-0.905c2.844-1.487,5.689-2.651,8.469-3.556
          c2.327-0.776,4.396-2.327,5.689-4.396l9.568-14.61h6.206l9.568,14.61c1.422,2.069,3.426,3.62,5.689,4.396
          c2.78,0.905,5.624,2.069,8.469,3.556c2.133,1.164,4.719,1.487,7.111,0.905l17.131-3.556l4.396,4.396l-3.232,17.131
          c-0.453,2.392-0.129,4.978,1.034,7.176c1.487,2.78,2.651,5.624,3.556,8.469c0.776,2.392,2.327,4.396,4.396,5.689l14.61,9.568
          V100.622z"/>
      </g>
    </g>
    <g>
      <g>
        <path d="M295.176,57.244c-22.238,0-40.339,18.101-40.339,40.339c0,22.238,18.101,40.339,40.339,40.339
          c22.238,0,40.339-18.101,40.339-40.339C335.515,75.345,317.414,57.244,295.176,57.244z M295.176,116.137
          c-10.214,0-18.554-8.339-18.554-18.554c0-10.214,8.339-18.554,18.554-18.554c10.214,0,18.554,8.339,18.554,18.554
          C313.729,107.798,305.39,116.137,295.176,116.137z"/>
      </g>
    </g>
  </symbol>

  <!-- JavaScript Icon -->
  <symbol id="js" viewBox="0 0 256 256">
    <path d="M0 0h256v256H0V0z" fill="#F7DF1E"/><path d="M67.312 213.932l19.59-11.856c3.78 6.701 7.218 12.371 15.465 12.371 7.905 0 12.89-3.092 12.89-15.12v-81.798h24.057v82.138c0 24.917-14.606 36.259-35.916 36.259-19.245 0-30.416-9.967-36.087-21.996M152.381 211.354l19.588-11.341c5.157 8.421 11.859 14.607 23.715 14.607 9.969 0 16.325-4.984 16.325-11.858 0-8.248-6.53-11.17-17.528-15.98l-6.013-2.58c-17.357-7.387-28.87-16.667-28.87-36.257 0-18.044 13.747-31.792 35.228-31.792 15.294 0 26.292 5.328 34.196 19.247L210.29 147.43c-4.125-7.389-8.591-10.31-15.465-10.31-7.046 0-11.514 4.468-11.514 10.31 0 7.217 4.468 10.14 14.778 14.608l6.014 2.577c20.45 8.765 31.963 17.7 31.963 37.804 0 21.654-17.012 33.51-39.867 33.51-22.339 0-36.774-10.654-43.819-24.574"/>
  </symbol>

  <!-- PHP -->
  <symbol id="php" viewBox="0 0 512 512">
    <rect
    width="512" height="512"
    rx="15%"
    fill="#777bb3"/>

    <g stroke="#ffffff" stroke-width="6">

    <path id="a" d="M155 202H97a3 3 0 0 0-3 2L67 345c0 3 3 3 3 3h30c3 0 3-2 3-2l7-35h27c42 0 63-28 68-53s1-56-50-56zm13 54c-4 19-17 27-35 27h-18l11-53h18c27 0 26 10 24 26z"/>

    <path d="M275 311c-4 0-3-4-3-4l12-61c0-8 6-16-18-15h-18l-15 78s0 3-4 3h-29c-3 0-3-3-3-3l28-141s0-2 4-2h30c3 0 2 3 2 3l-7 34h26c36 0 45 17 42 37l-13 69s0 3-5 3z"/>

    <use xlink:href="#a" x="239"/>

    </g>

  </symbol>
  
  <symbol id="laravel" viewBox="-4 0 264 264">
    <g>
        <path d="M255.855641,59.619717 C255.950565,59.9710596 256,60.3333149 256,60.6972536 L256,117.265345 C256,118.743206 255.209409,120.108149 253.927418,120.843385 L206.448786,148.178786 L206.448786,202.359798 C206.448786,203.834322 205.665123,205.195421 204.386515,205.937838 L105.27893,262.990563 C105.05208,263.119455 104.804608,263.201946 104.557135,263.289593 C104.464333,263.320527 104.376687,263.377239 104.278729,263.403017 C103.585929,263.58546 102.857701,263.58546 102.164901,263.403017 C102.051476,263.372083 101.948363,263.310215 101.840093,263.26897 C101.613244,263.186479 101.376082,263.1143 101.159544,262.990563 L2.07258227,205.937838 C0.7913718,205.201819 0,203.837372 0,202.359798 L0,32.6555248 C0,32.2843161 0.0515567729,31.9234187 0.144358964,31.5728326 C0.175293028,31.454252 0.24747251,31.3459828 0.288717928,31.2274022 C0.366053087,31.0108638 0.438232569,30.7891697 0.55165747,30.5880982 C0.628992629,30.4540506 0.742417529,30.3457814 0.83521972,30.2220451 C0.953800298,30.0570635 1.06206952,29.8869261 1.20127281,29.7425672 C1.31985339,29.6239866 1.4745237,29.5363401 1.60857131,29.4332265 C1.75808595,29.3094903 1.89213356,29.1754427 2.06227091,29.0774848 L2.06742659,29.0774848 L51.6134853,0.551122364 C52.8901903,-0.183535768 54.4613221,-0.183535768 55.7380271,0.551122364 L105.284086,29.0774848 L105.294397,29.0774848 C105.459379,29.1805983 105.598582,29.3094903 105.748097,29.4280708 C105.882144,29.5311844 106.031659,29.6239866 106.15024,29.7374115 C106.294599,29.8869261 106.397712,30.0570635 106.521448,30.2220451 C106.609095,30.3457814 106.727676,30.4540506 106.799855,30.5880982 C106.918436,30.7943253 106.985459,31.0108638 107.06795,31.2274022 C107.109196,31.3459828 107.181375,31.454252 107.212309,31.5779883 C107.307234,31.9293308 107.355765,32.2915861 107.356668,32.6555248 L107.356668,138.651094 L148.643332,114.878266 L148.643332,60.6920979 C148.643332,60.3312005 148.694889,59.9651474 148.787691,59.619717 C148.823781,59.4959808 148.890804,59.3877116 148.93205,59.269131 C149.014541,59.0525925 149.08672,58.8308984 149.200145,58.629827 C149.27748,58.4957794 149.390905,58.3875102 149.478552,58.2637739 C149.602288,58.0987922 149.705401,57.9286549 149.84976,57.7842959 C149.968341,57.6657153 150.117856,57.5780688 150.251903,57.4749553 C150.406573,57.351219 150.540621,57.2171714 150.705603,57.1192136 L150.710758,57.1192136 L200.261973,28.5928511 C201.538395,27.8571345 203.110093,27.8571345 204.386515,28.5928511 L253.932573,57.1192136 C254.107866,57.2223271 254.241914,57.351219 254.396584,57.4697996 C254.525476,57.5729132 254.674991,57.6657153 254.793572,57.7791402 C254.93793,57.9286549 255.041044,58.0987922 255.16478,58.2637739 C255.257582,58.3875102 255.371007,58.4957794 255.443187,58.629827 C255.561767,58.8308984 255.628791,59.0525925 255.711282,59.269131 C255.757683,59.3877116 255.824707,59.4959808 255.855641,59.619717 Z M247.740605,114.878266 L247.740605,67.8378666 L230.402062,77.8192579 L206.448786,91.6106946 L206.448786,138.651094 L247.745761,114.878266 L247.740605,114.878266 Z M198.194546,199.97272 L198.194546,152.901386 L174.633101,166.357704 L107.351512,204.757188 L107.351512,252.27191 L198.194546,199.97272 Z M8.25939501,39.7961379 L8.25939501,199.97272 L99.0921175,252.266755 L99.0921175,204.762344 L51.6392637,177.906421 L51.6237967,177.89611 L51.603174,177.885798 C51.443348,177.792996 51.3093004,177.658949 51.1597857,177.545524 C51.0308938,177.44241 50.8813791,177.359919 50.7679542,177.246494 L50.7576429,177.231027 C50.6235953,177.102135 50.5307931,176.942309 50.4173682,176.79795 C50.3142546,176.658747 50.1905184,176.540167 50.1080276,176.395808 L50.1028719,176.380341 C50.0100697,176.22567 49.9533572,176.040066 49.8863334,175.864773 C49.8193096,175.710103 49.7316631,175.565744 49.6904177,175.400762 L49.6904177,175.395606 C49.6388609,175.19969 49.6285496,174.993463 49.6079269,174.792392 C49.5873041,174.637722 49.5460587,174.483051 49.5460587,174.328381 L49.5460587,174.31807 L49.5460587,63.5689658 L25.5979377,49.7723734 L8.25939501,39.8012935 L8.25939501,39.7961379 Z M53.6809119,8.89300821 L12.3994039,32.6555248 L53.6706006,56.4180414 L94.9469529,32.6503692 L53.6706006,8.89300821 L53.6809119,8.89300821 Z M75.1491521,157.19091 L99.0972731,143.404629 L99.0972731,39.7961379 L81.7587304,49.7775291 L57.8054537,63.5689658 L57.8054537,167.177457 L75.1491521,157.19091 Z M202.324244,36.934737 L161.047891,60.6972536 L202.324244,84.4597702 L243.59544,60.6920979 L202.324244,36.934737 Z M198.194546,91.6106946 L174.24127,77.8192579 L156.902727,67.8378666 L156.902727,114.878266 L180.850848,128.664547 L198.194546,138.651094 L198.194546,91.6106946 Z M103.216659,197.616575 L163.759778,163.052915 L194.023603,145.781396 L152.778185,122.034346 L105.289242,149.374903 L62.0073307,174.292291 L103.216659,197.616575 Z" fill="#FF2D20" />
    </g>
  </symbol>

</svg>